<?xml version="1.0" encoding="utf-8"?>
<!-- Generator: Adobe Illustrator 19.1.0, SVG Export Plug-In . SVG Version: 6.00 Build 0)  -->
<svg version="1.1" id="Layer_1" xmlns="http://www.w3.org/2000/svg" xmlns:xlink="http://www.w3.org/1999/xlink" x="0px" y="0px"
	 viewBox="0 0 250 250" style="enable-background:new 0 0 250 250;" xml:space="preserve">
<g>
<path fill="#300d4f" d="M262.1 146.2v-13.1c0-.2-.1-.4-.3-.5l-65-37.5c-.2-.1-.4-.1-.6 0l-10.8 6.2c-.4.2-.4.8 0 1l63.8 36.8c.4.2.4.8 0 1l-13.6 7.9c-.2.1-.4.1-.6 0l-65-37.5c-.2-.1-.4-.1-.6 0l-10.8 6.2c-.4.2-.4.8 0 1l63.8 36.8c.4.2.4.8 0 1l-13.6 7.9c-.2.1-.4.1-.6 0l-65-37.5c-.2-.1-.4-.1-.6 0l-11.4 6.6c-.2.1-.3.3-.3.5v124.4c0 .2.1.4.3.5l10.8 6.2c.4.2.9-.1.9-.5v-123c0-.5.5-.7.9-.5l13.6 7.9c.2.1.3.3.3.5v124.4c0 .2.1.4.3.5l10.8 6.2c.4.2.9-.1.9-.5v-123c0-.5.5-.7.9-.5l13.6 7.9c.2.1.3.3.3.5v124.4c0 .2.1.4.3.5l10.8 6.2c.4.2.9-.1.9-.5v-48c0-.2.1-.4.3-.5l65-37.5c.2-.1.3-.3.3-.5v-12.5c0-.5-.5-.7-.9-.5L197.4 232c-.4.2-.9-.1-.9-.5v-15.8c0-.2.1-.4.3-.5l65-37.5c.2-.1.3-.3.3-.5v-12.5c0-.5-.5-.7-.9-.5L197.4 201c-.4.2-.9-.1-.9-.5v-15.8c0-.2.1-.4.3-.5l65-37.5c.2-.1.3-.2.3-.5zm-65.6 24.4z" class="st2"></path>
</g>
</svg>

